<?xml version="1.0" encoding="UTF-8"?>
<svg class="style-scope yt-icon" display="block" pointer-events="none" style="height:100%;width:100%" focusable="false" version="1.1" viewBox="0 0 90 20" xmlns="http://www.w3.org/2000/svg">
<g class="style-scope yt-icon" preserveAspectRatio="xMidYMid meet" viewBox="0 0 90 20">
<g class="style-scope yt-icon">
<path class="style-scope yt-icon" d="m27.973 3.1232c-0.3292-1.23-1.2959-2.1966-2.5259-2.5259-2.2271-0.59737-11.162-0.59737-11.162-0.59737s-8.9346 2.2429e-7 -11.162 0.59737c-1.23 0.32926-2.1966 1.2959-2.5259 2.5259-0.59737 2.2272-0.59737 6.8768-0.59737 6.8768s2.2429e-7 4.6496 0.59737 6.8768c0.32926 1.23 1.2959 2.1966 2.5259 2.5258 2.2272 0.5974 11.162 0.5974 11.162 0.5974s8.9347 0 11.162-0.5974c1.23-0.3292 2.1967-1.2958 2.5259-2.5258 0.5974-2.2272 0.5974-6.8768 0.5974-6.8768s-0.0024-4.6496-0.5974-6.8768z" fill="#f00"/>
<path class="style-scope yt-icon" d="m11.425 14.285 7.4224-4.285-7.4224-4.2851v8.5701z" fill="#fff"/>
</g>
<g class="style-scope yt-icon">
<g class="style-scope yt-icon">
<path class="style-scope yt-icon" d="m34.602 13.004-3.2079-11.585h2.7987l1.1242 5.2516c0.2869 1.2935 0.4962 2.3965 0.6326 3.309h0.0823c0.0941-0.65381 0.3058-1.7498 0.6327-3.2902l1.1641-5.2705h2.7987l-3.2479 11.585v5.5574h-2.7798v-5.5574h0.0023z"/>
<path class="style-scope yt-icon" d="m41.47 18.194c-0.5644-0.381-0.9666-0.9737-1.2065-1.778-0.2375-0.8043-0.3574-1.872-0.3574-3.2079v-1.818c0-1.3476 0.1364-2.4318 0.4092-3.2478 0.2728-0.81608 0.6985-1.4134 1.277-1.7874 0.5786-0.37394 1.3382-0.56209 2.279-0.56209 0.9266 0 1.6674 0.1905 2.2271 0.5715 0.5574 0.38099 0.9666 0.97836 1.2253 1.7874 0.2587 0.81138 0.3881 1.8908 0.3881 3.2384v1.818c0 1.3359-0.127 2.4083-0.3786 3.2173-0.2517 0.8114-0.6609 1.4041-1.2254 1.778-0.5644 0.374-1.3311 0.5621-2.2977 0.5621-0.9972 0.0023-1.7756-0.1905-2.3401-0.5715zm3.1656-1.9614c0.1552-0.4092 0.2352-1.0748 0.2352-2.0014v-3.9017c0-0.89843-0.0776-1.557-0.2352-1.9709-0.1576-0.41627-0.4327-0.62323-0.8279-0.62323-0.3809 0-0.6514 0.20696-0.8066 0.62323-0.1576 0.41628-0.2352 1.0724-0.2352 1.9709v3.9017c0 0.9266 0.0752 1.5945 0.2258 2.0014 0.1505 0.4092 0.4209 0.6138 0.816 0.6138 0.3952 0 0.6703-0.2046 0.8279-0.6138z"/>
<path class="style-scope yt-icon" d="m56.815 18.563h-2.206l-0.2446-1.5334h-0.0611c-0.5998 1.1571-1.4982 1.7356-2.6976 1.7356-0.8302 0-1.444-0.2728-1.8391-0.816-0.3951-0.5457-0.5927-1.397-0.5927-2.5541v-9.358h2.8199v9.1933c0 0.5598 0.0611 0.9572 0.1834 1.1948 0.1223 0.2375 0.3269 0.3574 0.6138 0.3574 0.2446 0 0.4798-0.0752 0.7056-0.2257 0.2258-0.1506 0.3904-0.3411 0.5009-0.5715v-9.9506h2.8175v12.528z"/>
<path class="style-scope yt-icon" d="m64.476 3.6876h-2.7987v14.875h-2.7587v-14.875h-2.7987v-2.2672h8.3561v2.2672z"/>
<path class="style-scope yt-icon" d="m71.277 18.563h-2.206l-0.2446-1.5334h-0.0611c-0.5997 1.1571-1.4981 1.7356-2.6976 1.7356-0.8302 0-1.444-0.2728-1.8391-0.816-0.3951-0.5457-0.5927-1.397-0.5927-2.5541v-9.358h2.8199v9.1933c0 0.5598 0.0611 0.9572 0.1834 1.1948 0.1223 0.2375 0.3269 0.3574 0.6139 0.3574 0.2445 0 0.4797-0.0752 0.7055-0.2257 0.2258-0.1506 0.3904-0.3411 0.5009-0.5715v-9.9506h2.8175v12.528z"/>
<path class="style-scope yt-icon" d="m80.609 8.0387c-0.1717-0.79021-0.4469-1.3617-0.8278-1.7168-0.381-0.35512-0.9055-0.53151-1.5734-0.53151-0.5174 0-1.0019 0.14581-1.4511 0.43979s-0.7973 0.67733-1.0419 1.1548h-0.0211v-6.5992h-2.7164v17.775h2.3283l0.2869-1.1853h0.0612c0.2187 0.4233 0.5456 0.7549 0.9807 1.0019 0.4351 0.2446 0.9196 0.3669 1.4511 0.3669 0.9525 0 1.6557-0.4398 2.1049-1.3171 0.4492-0.8796 0.6749-2.2507 0.6749-4.118v-1.9826c0-1.3994-0.087-2.4977-0.2563-3.2879zm-2.5847 5.1105c0 0.9125-0.0376 1.6275-0.1129 2.1449-0.0752 0.5174-0.1999 0.8867-0.3786 1.103-0.1764 0.2187-0.4163 0.3269-0.715 0.3269-0.2328 0-0.4468-0.0541-0.6444-0.1646-0.1975-0.1082-0.3574-0.2728-0.4797-0.4892v-7.1096c0.094-0.34102 0.2587-0.61853 0.4915-0.83725 0.2305-0.21872 0.4845-0.32691 0.7549-0.32691 0.287 0 0.508 0.11289 0.6633 0.33632 0.1575 0.22577 0.2657 0.60207 0.3269 1.1336 0.0611 0.53151 0.0917 1.2864 0.0917 2.2671v1.6157h0.0023z"/>
<path class="style-scope yt-icon" d="m84.866 13.871c0 0.8043 0.0235 1.4064 0.0706 1.8086 0.047 0.4021 0.1458 0.6938 0.2963 0.8796 0.1505 0.1834 0.381 0.2751 0.6938 0.2751 0.421 0 0.7126-0.1646 0.8678-0.4915 0.1576-0.3269 0.2423-0.8725 0.2564-1.6345l2.4318 0.1434c0.0141 0.1082 0.0211 0.2587 0.0211 0.4492 0 1.1571-0.3175 2.0226-0.9501 2.5941s-1.5287 0.8584-2.6858 0.8584c-1.3899 0-2.3636-0.4351-2.921-1.3076-0.5597-0.8725-0.8372-2.2201-0.8372-4.0452v-2.1872c0-1.8791 0.2893-3.2526 0.8678-4.118 0.5786-0.86548 1.5687-1.2982 2.9727-1.2982 0.9666 0 1.7098 0.17639 2.2272 0.53152 0.5174 0.35512 0.8819 0.90545 1.0936 1.6557 0.2117 0.75023 0.3175 1.785 0.3175 3.1067v2.1449h-4.7225v0.635zm0.3575-5.9031c-0.1435 0.17638-0.2375 0.46566-0.2869 0.86782-0.0471 0.40217-0.0706 1.0113-0.0706 1.8298v0.8984h2.0626v-0.8984c0-0.80437-0.0282-1.4135-0.0823-1.8298-0.0541-0.41627-0.1529-0.7079-0.2964-0.87958-0.1434-0.16933-0.3645-0.25635-0.6632-0.25635-0.301 0.00235-0.5221 0.09172-0.6632 0.26811z"/>
</g>
</g>
</g>
</svg>
